# xmcd CD database file
#
# Track frame offsets:
#	150
#	11830
#	22565
#	36892
#	51725
#	65882
#	77135
#	89482
#	101067
#	114362
#
# Disc length: 1699 seconds
#
# Revision: 3
# Processed by: cddbd v1.5.1PL0 Copyright (c) Steve Scherf et al.
# Submitted via: CDex 1.51
#
DISCID=8206a10a
DTITLE=The Crickets - T-Shirts
DYEAR=1988
DGENRE=Rock and Roll
TTITLE0=Your M-M-Memory Is T-T-Torturing Me
TTITLE1=Rockin' Socks
TTITLE2=The Weekend
TTITLE3=Holly Would
TTITLE4=T-Shirt
TTITLE5=Forever In Mind
TTITLE6=Cruise In It
TTITLE7=Three Piece
TTITLE8=Don't Tell Me That You Can't Come Out Tonight
TTITLE9=That's All She Wrote
EXTD=MillenniumMusicProjectFormat YEAR: 1988
EXTT0=
EXTT1=
EXTT2=
EXTT3=
EXTT4=
EXTT5=
EXTT6=
EXTT7=
EXTT8=
EXTT9=
PLAYORDER=
